<?xml version="1.0"?>
<svg width="640" height="640" xmlns="http://www.w3.org/2000/svg" xmlns:svg="http://www.w3.org/2000/svg">
 <!--!Font Awesome Free 7.0.0 by @fontawesome - https://fontawesome.com License - https://fontawesome.com/license/free Copyright 2025 Fonticons, Inc.-->
 <g class="layer">
  <title>Layer 1</title>
  <path d="m286.7,96.1c5,16.9 -4.6,34.8 -21.5,39.8c-79.3,23.6 -137.1,97.1 -137.1,184.1c0,106 86,192 192,192c106,0 192,-86 192,-192c0,-86.9 -57.8,-160.4 -137.1,-184.1c-16.9,-5 -26.6,-22.9 -21.5,-39.8c5.1,-16.9 22.9,-26.6 39.8,-21.5c105.6,31.5 182.7,129.4 182.7,245.4c0,141.4 -114.6,256 -256,256c-141.4,0 -256,-114.6 -256,-256c0,-116 77.1,-213.9 182.9,-245.4c16.9,-5 34.8,4.6 39.8,21.5z" fill="#de983b" id="svg_1"/>
 </g>
</svg>